<?xml version="1.0" encoding="UTF-8"?>
<svg xmlns="http://www.w3.org/2000/svg"
    xmlns:xlink="http://www.w3.org/1999/xlink" width="375pt" height="374.999991pt" viewBox="0 0 375 374.999991" version="1.2">
    <defs>
        <clipPath id="clip1">
            <path d="M 61.925781 0 L 311.675781 0 L 311.675781 375 L 61.925781 375 Z M 61.925781 0 "/>
        </clipPath>
    </defs>
    <g id="surface1">
        <g clip-path="url(#clip1)" clip-rule="nonzero">
            <path style=" stroke:none;fill-rule:nonzero;fill:rgb(27.059937%,48.239136%,61.569214%);fill-opacity:1;" d="M 300.851562 62.734375 L 197.628906 3.476562 C 191.675781 0.0585938 181.933594 0.0585938 175.976562 3.476562 L 72.753906 62.734375 C 66.800781 66.15625 61.925781 74.566406 61.925781 81.421875 L 61.925781 199.882812 C 61.925781 203.3125 63.144531 207.128906 65.105469 210.511719 L 65.117188 210.523438 C 66.09375 212.214844 186.800781 374.976562 186.800781 374.976562 C 186.800781 374.976562 307.511719 212.214844 308.488281 210.523438 L 308.496094 210.511719 C 310.453125 207.128906 311.675781 203.3125 311.675781 199.882812 L 311.675781 81.421875 C 311.675781 74.566406 306.808594 66.15625 300.851562 62.734375 Z M 280.457031 194.324219 L 186.816406 248.191406 L 93.144531 194.324219 L 93.144531 86.972656 L 186.792969 33.105469 L 280.457031 86.988281 L 280.457031 194.324219 "/>
        </g>
        <path style=" stroke:none;fill-rule:nonzero;fill:rgb(11.369324%,20.779419%,34.118652%);fill-opacity:1;" d="M 249.238281 176.390625 L 186.8125 212.347656 L 124.363281 176.390625 L 124.363281 104.910156 L 186.785156 68.957031 L 249.238281 104.921875 L 249.238281 176.390625 "/>
        <path style=" stroke:none;fill-rule:nonzero;fill:rgb(93.328857%,96.078491%,98.039246%);fill-opacity:1;" d="M 186.792969 33.105469 L 93.144531 86.972656 L 93.144531 194.324219 L 186.816406 248.191406 L 280.457031 194.324219 L 280.457031 86.988281 Z M 249.238281 176.390625 L 186.8125 212.347656 L 124.363281 176.390625 L 124.363281 104.910156 L 186.785156 68.957031 L 249.238281 104.921875 L 249.238281 176.390625 "/>
    </g>
</svg>
