<svg xmlns="http://www.w3.org/2000/svg" viewBox="0 0 512 640" x="0px" y="0px" fill="#eef5fa">
    <g>
        <path d="M473.731,448a9.229,9.229,0,0,1-7.877-4.461L364.843,275.188A56.285,56.285,0,0,0,316.823,248H304V184h8a8,8,0,0,0,8-8V144a7.993,7.993,0,0,0-4.376-7.126c-.018-.009-.028-.02-.046-.029L208,83.056V69.275l51.151-21.922a8,8,0,0,0,0-14.706l-56-24A8,8,0,0,0,192,16V83.056L84.422,136.845c-.024.012-.037.024-.06.036A7.994,7.994,0,0,0,80,144v32a8,8,0,0,0,8,8h8V302.335L16.663,484.81A8,8,0,0,0,24,496H56a8,8,0,0,0,7.337-4.81L75.159,464H97.711l-9.048,20.81A8,8,0,0,0,96,496h32a8,8,0,0,0,7.337-4.81L176,397.665V488a8,8,0,0,0,8,8h32a8,8,0,0,0,8-8V448h32v40a8,8,0,0,0,8,8h32a8,8,0,0,0,8-8V312h15.008a8.05,8.05,0,0,1,6.834,3.84L428.49,484.479h0a24.146,24.146,0,0,0,20.5,11.52H488a8,8,0,0,0,8-8V470.269A22.294,22.294,0,0,0,473.731,448ZM192,296V280h96v16Zm64,72H224V352h32Zm-32,16h32v16H224Zm32-48H224V312h32ZM118.581,416H96.028l6.986-16.067A8.029,8.029,0,0,0,104,400h21.537ZM112,280h64v16H112ZM96,168V152H208v16Zm128,96V248h32v16Zm-80-48h32v16H144Zm48-32h16v80H192Zm64,48H224V216h32Zm0-32H224V184h32Zm-80-16v16H144V184Zm-32,64h32v16H144ZM132.494,384H109.941l6.957-16H139.45Zm13.913-32H123.854l6.957-16h22.552Zm13.906-31.984c-.1,0-.208-.016-.313-.016H137.767l3.479-8H163.8ZM288,264H272V184h16Zm16-96H224V152h80Zm-25.889-32H222.035l-9.347-32.711ZM208,51.868V28.132L235.691,40Zm-13.044,47.6L205.394,136H121.889ZM128,184v80H112V184ZM50.755,480H36.2l73.043-168H123.8ZM104,448H82.115l6.957-16h22.552l-6.971,16.033C104.437,448.016,104.22,448,104,448Zm18.755,32H108.2l49.953-114.89a7.96,7.96,0,0,0,1.772-4.076L176,324.064v33.471ZM208,480H192V312h16Zm16-48V416h32v16Zm64,48H272V312h16Zm192,0H448.992a8.052,8.052,0,0,1-6.834-3.84L339.509,307.52a24.146,24.146,0,0,0-20.5-11.52H304V264h12.823a40.2,40.2,0,0,1,34.3,19.42L452.133,451.771A25.317,25.317,0,0,0,473.731,464,6.276,6.276,0,0,1,480,470.269Z"/>
        <path d="M407.393,308.008l9.263,16a8,8,0,1,0,13.846-8.016l-9.264-16a8,8,0,1,0-13.845,8.016Z"/>
        <path d="M393.076,283.281a8,8,0,0,0,13.848-8.016l-8-13.819a8,8,0,0,0-13.848,8.017Z"/>
        <path d="M328,232h.334a60.524,60.524,0,0,1,42.124,16.955,8,8,0,1,0,11.084-11.538A76.449,76.449,0,0,0,328.334,216H328a8,8,0,0,0,0,16Z"/>
    </g>
    <text x="0" y="527" fill="#000000" font-size="5px" font-weight="bold" font-family="'Helvetica Neue', Helvetica, Arial-Unicode, Arial, Sans-serif">Created by supalerk laipawat</text>
    <text x="0" y="532" fill="#000000" font-size="5px" font-weight="bold" font-family="'Helvetica Neue', Helvetica, Arial-Unicode, Arial, Sans-serif">from the Noun Project</text>
</svg>
