<svg xmlns="http://www.w3.org/2000/svg" data-name="Layer 1" viewBox="0 0 100 125" x="0px" y="0px" fill="#eef5fa">
    <title>Artboard 24</title>
    <rect x="2.5" y="2.5" width="27.14" height="13.57"/>
    <rect x="22.86" y="22.86" width="27.14" height="13.57"/>
    <rect x="2.5" y="22.86" width="13.57" height="13.57"/>
    <rect x="90.71" y="22.86" width="6.79" height="13.57"/>
    <rect x="56.79" y="22.86" width="27.14" height="13.57"/>
    <rect x="36.43" y="2.5" width="27.14" height="13.57"/>
    <rect x="70.36" y="2.5" width="27.14" height="13.57"/>
    <rect x="2.5" y="43.21" width="27.14" height="13.57"/>
    <rect x="22.86" y="63.57" width="27.14" height="13.57"/>
    <rect x="2.5" y="63.57" width="13.57" height="13.57"/>
    <rect x="90.71" y="63.57" width="6.79" height="13.57"/>
    <rect x="56.79" y="63.57" width="27.14" height="13.57"/>
    <rect x="36.43" y="43.21" width="27.14" height="13.57"/>
    <rect x="70.36" y="43.21" width="27.14" height="13.57"/>
    <rect x="2.5" y="83.93" width="27.14" height="13.57"/>
    <rect x="36.43" y="83.93" width="27.14" height="13.57"/>
    <rect x="70.36" y="83.93" width="27.14" height="13.57"/>
    <text x="0" y="115" fill="#eef5fa" font-size="5px" font-weight="bold" font-family="'Helvetica Neue', Helvetica, Arial-Unicode, Arial, Sans-serif">Created by Free Icons</text>
    <text x="0" y="120" fill="#eef5fa" font-size="5px" font-weight="bold" font-family="'Helvetica Neue', Helvetica, Arial-Unicode, Arial, Sans-serif">from the Noun Project</text>
</svg>
